<svg width="22" height="18" viewBox="0 0 22 18" fill="none" xmlns="http://www.w3.org/2000/svg">
<path d="M21.5005 5.27183C21.4629 6.57744 20.9261 7.81892 20.0005 8.74058L16.7427 12.0003C16.2682 12.4773 15.7038 12.8556 15.0822 13.113C14.4606 13.3705 13.794 13.5021 13.1212 13.5003H13.1165C12.4321 13.4998 11.7548 13.3622 11.1246 13.0955C10.4943 12.8289 9.92388 12.4386 9.44697 11.9478C8.97007 11.457 8.59636 10.8756 8.34793 10.238C8.09949 9.60032 7.98137 8.91934 8.00053 8.23526C8.00613 8.03635 8.09051 7.84781 8.23512 7.71111C8.37973 7.57442 8.57272 7.50076 8.77163 7.50636C8.97054 7.51195 9.15908 7.59634 9.29578 7.74094C9.43248 7.88555 9.50613 8.07854 9.50053 8.27745C9.48688 8.76113 9.57031 9.24265 9.7459 9.69353C9.9215 10.1444 10.1857 10.5555 10.5229 10.9026C10.86 11.2496 11.2634 11.5256 11.709 11.7141C12.1546 11.9027 12.6335 12 13.1174 12.0003C13.5931 12.0015 14.0642 11.9084 14.5037 11.7264C14.9432 11.5444 15.3422 11.2771 15.6777 10.94L18.9355 7.68214C19.6077 7.00152 19.9833 6.08262 19.9803 5.12605C19.9773 4.16949 19.596 3.25295 18.9196 2.57655C18.2432 1.90015 17.3266 1.51883 16.3701 1.51584C15.4135 1.51285 14.4946 1.88842 13.814 2.56058L12.7827 3.59183C12.6409 3.72654 12.4521 3.80053 12.2565 3.79803C12.061 3.79553 11.8741 3.71672 11.7358 3.57842C11.5975 3.44012 11.5187 3.25327 11.5162 3.05769C11.5137 2.86212 11.5877 2.67331 11.7224 2.53151L12.7537 1.50026C13.2294 1.02432 13.7943 0.646776 14.416 0.38919C15.0378 0.131603 15.7041 -0.000976562 16.3771 -0.000976562C17.0501 -0.000976562 17.7164 0.131603 18.3382 0.38919C18.9599 0.646776 19.5248 1.02432 20.0005 1.50026C20.4933 1.99429 20.8805 2.58342 21.1383 3.23181C21.3962 3.88021 21.5194 4.57429 21.5005 5.27183ZM9.21928 14.4059L8.18803 15.4371C7.85168 15.7757 7.45138 16.0441 7.01039 16.2266C6.56941 16.4091 6.09654 16.5021 5.61928 16.5003C4.90332 16.4997 4.20359 16.2869 3.6085 15.8888C3.01342 15.4907 2.54968 14.9252 2.27589 14.2636C2.0021 13.6021 1.93054 12.8742 2.07026 12.172C2.20997 11.4698 2.55468 10.8248 3.06085 10.3184L6.31303 7.06058C6.82527 6.54564 7.48051 6.19662 8.19365 6.05885C8.90679 5.92107 9.64488 6.00092 10.3121 6.28801C10.9792 6.5751 11.5447 7.05617 11.935 7.66874C12.3252 8.28131 12.5223 8.99708 12.5005 9.72308C12.4949 9.92199 12.5686 10.115 12.7053 10.2596C12.842 10.4042 13.0305 10.4886 13.2294 10.4942C13.4284 10.4998 13.6213 10.4261 13.7659 10.2894C13.9106 10.1527 13.9949 9.96418 14.0005 9.76526C14.0185 9.06882 13.8949 8.37599 13.637 7.72879C13.3792 7.08159 12.9925 6.49352 12.5005 6.00026C11.5398 5.03991 10.2369 4.50043 8.8785 4.50043C7.52007 4.50043 6.21724 5.03991 5.25647 6.00026L2.00054 9.25808C1.2845 9.97382 0.796706 10.8858 0.598795 11.8786C0.400883 12.8715 0.501738 13.9008 0.888614 14.8364C1.27549 15.772 1.93102 16.5719 2.77237 17.135C3.61372 17.6982 4.60312 17.9993 5.61553 18.0003C6.28854 18.0022 6.95524 17.8706 7.57705 17.6132C8.19885 17.3557 8.76341 16.9774 9.23803 16.5003L10.2693 15.469C10.3907 15.326 10.4541 15.1428 10.447 14.9554C10.44 14.768 10.3629 14.59 10.2312 14.4566C10.0994 14.3232 9.92238 14.2439 9.73507 14.2346C9.54777 14.2252 9.36375 14.2863 9.21928 14.4059Z" fill="#E8E8E8"/>
</svg>
