<svg width="31" height="31" viewBox="0 0 31 31" fill="none" xmlns="http://www.w3.org/2000/svg">
<path d="M30.875 12.0331C30.8759 11.7375 30.8181 11.4447 30.7049 11.1716C30.5916 10.8986 30.4253 10.6508 30.2154 10.4426L20.5573 0.783093C20.3484 0.574107 20.1003 0.408327 19.8273 0.295222C19.5543 0.182116 19.2616 0.123901 18.9661 0.123901C18.6706 0.123901 18.378 0.182116 18.105 0.295222C17.832 0.408327 17.5839 0.574107 17.375 0.783093L13.377 4.78106L5.22073 7.84247C4.85005 7.98071 4.52218 8.2139 4.26996 8.51869C4.01773 8.82348 3.85 9.18919 3.78354 9.57919L0.51542 29.1893C0.488452 29.3505 0.496932 29.5157 0.54027 29.6733C0.583608 29.8309 0.660762 29.9771 0.766365 30.1019C0.871968 30.2266 1.00348 30.3268 1.15176 30.3956C1.30003 30.4643 1.46151 30.5 1.62495 30.5C1.68714 30.4997 1.7492 30.4945 1.81058 30.4845L21.4193 27.2164C21.8089 27.1514 22.1744 26.985 22.4793 26.7339C22.7841 26.4829 23.0175 26.156 23.156 25.7862L26.2175 17.63L30.2154 13.625C30.4254 13.4166 30.5918 13.1685 30.705 12.8953C30.8182 12.622 30.876 12.3289 30.875 12.0331ZM21.0495 24.9973L4.90433 27.6875L11.5657 21.0261C12.3977 21.4757 13.3638 21.6109 14.2873 21.4069C15.2107 21.2028 16.0299 20.6733 16.5951 19.9149C17.1602 19.1566 17.4335 18.2202 17.365 17.2769C17.2965 16.3337 16.8908 15.4466 16.2221 14.7779C15.5533 14.1091 14.6662 13.7034 13.723 13.6349C12.7797 13.5664 11.8433 13.8397 11.085 14.4049C10.3267 14.97 9.79707 15.7892 9.59305 16.7127C9.38903 17.6361 9.5242 18.6022 9.97386 19.4342L3.31245 26.0984L6.00261 9.94903L13.7187 7.05638L23.9421 17.2812L21.0495 24.9973ZM11.75 17.5625C11.75 17.2287 11.8489 16.9025 12.0343 16.6249C12.2198 16.3474 12.4833 16.1311 12.7917 16.0034C13.1 15.8757 13.4393 15.8423 13.7667 15.9074C14.094 15.9725 14.3947 16.1332 14.6307 16.3692C14.8667 16.6052 15.0274 16.9059 15.0925 17.2333C15.1576 17.5606 15.1242 17.8999 14.9965 18.2082C14.8688 18.5166 14.6525 18.7801 14.375 18.9656C14.0975 19.151 13.7712 19.25 13.4375 19.25C12.9899 19.25 12.5607 19.0722 12.2442 18.7557C11.9277 18.4392 11.75 18.01 11.75 17.5625ZM25.25 15.4081L15.5904 5.74997L18.9654 2.37497L28.625 12.0331L25.25 15.4081Z" fill="#E8E8E8"/>
</svg>
