<svg width="32" height="25" viewBox="0 0 32 25" fill="none" xmlns="http://www.w3.org/2000/svg">
<path d="M30.625 17.625H29.5V4.125C29.5 3.22989 29.1444 2.37145 28.5115 1.73851C27.8786 1.10558 27.0201 0.75 26.125 0.75H5.875C4.97989 0.75 4.12145 1.10558 3.48851 1.73851C2.85558 2.37145 2.5 3.22989 2.5 4.125V17.625H1.375C1.07663 17.625 0.790483 17.7435 0.579505 17.9545C0.368526 18.1655 0.25 18.4516 0.25 18.75V21C0.25 21.8951 0.605579 22.7536 1.23851 23.3865C1.87145 24.0194 2.72989 24.375 3.625 24.375H28.375C29.2701 24.375 30.1286 24.0194 30.7615 23.3865C31.3944 22.7536 31.75 21.8951 31.75 21V18.75C31.75 18.4516 31.6315 18.1655 31.4205 17.9545C31.2095 17.7435 30.9234 17.625 30.625 17.625ZM4.75 4.125C4.75 3.82663 4.86853 3.54048 5.0795 3.3295C5.29048 3.11853 5.57663 3 5.875 3H26.125C26.4234 3 26.7095 3.11853 26.9205 3.3295C27.1315 3.54048 27.25 3.82663 27.25 4.125V17.625H4.75V4.125ZM29.5 21C29.5 21.2984 29.3815 21.5845 29.1705 21.7955C28.9595 22.0065 28.6734 22.125 28.375 22.125H3.625C3.32663 22.125 3.04048 22.0065 2.8295 21.7955C2.61853 21.5845 2.5 21.2984 2.5 21V19.875H29.5V21ZM19.375 6.375C19.375 6.67337 19.2565 6.95952 19.0455 7.1705C18.8345 7.38147 18.5484 7.5 18.25 7.5H13.75C13.4516 7.5 13.1655 7.38147 12.9545 7.1705C12.7435 6.95952 12.625 6.67337 12.625 6.375C12.625 6.07663 12.7435 5.79048 12.9545 5.5795C13.1655 5.36853 13.4516 5.25 13.75 5.25H18.25C18.5484 5.25 18.8345 5.36853 19.0455 5.5795C19.2565 5.79048 19.375 6.07663 19.375 6.375Z" fill="#E8E8E8"/>
</svg>
