<svg width="32" height="29" viewBox="0 0 32 29" fill="none" xmlns="http://www.w3.org/2000/svg">
<path d="M30.625 12.75H17.125V9.375H18.25C18.8467 9.375 19.419 9.13795 19.841 8.71599C20.2629 8.29403 20.5 7.72174 20.5 7.125V2.625C20.5 2.02826 20.2629 1.45597 19.841 1.03401C19.419 0.612053 18.8467 0.375 18.25 0.375H13.75C13.1533 0.375 12.581 0.612053 12.159 1.03401C11.7371 1.45597 11.5 2.02826 11.5 2.625V7.125C11.5 7.72174 11.7371 8.29403 12.159 8.71599C12.581 9.13795 13.1533 9.375 13.75 9.375H14.875V12.75H1.375C1.07663 12.75 0.790483 12.8685 0.579505 13.0795C0.368526 13.2905 0.25 13.5766 0.25 13.875C0.25 14.1734 0.368526 14.4595 0.579505 14.6705C0.790483 14.8815 1.07663 15 1.375 15H5.875V19.5H4.75C4.15326 19.5 3.58097 19.7371 3.15901 20.159C2.73705 20.581 2.5 21.1533 2.5 21.75V26.25C2.5 26.8467 2.73705 27.419 3.15901 27.841C3.58097 28.2629 4.15326 28.5 4.75 28.5H9.25C9.84674 28.5 10.419 28.2629 10.841 27.841C11.2629 27.419 11.5 26.8467 11.5 26.25V21.75C11.5 21.1533 11.2629 20.581 10.841 20.159C10.419 19.7371 9.84674 19.5 9.25 19.5H8.125V15H23.875V19.5H22.75C22.1533 19.5 21.581 19.7371 21.159 20.159C20.7371 20.581 20.5 21.1533 20.5 21.75V26.25C20.5 26.8467 20.7371 27.419 21.159 27.841C21.581 28.2629 22.1533 28.5 22.75 28.5H27.25C27.8467 28.5 28.419 28.2629 28.841 27.841C29.2629 27.419 29.5 26.8467 29.5 26.25V21.75C29.5 21.1533 29.2629 20.581 28.841 20.159C28.419 19.7371 27.8467 19.5 27.25 19.5H26.125V15H30.625C30.9234 15 31.2095 14.8815 31.4205 14.6705C31.6315 14.4595 31.75 14.1734 31.75 13.875C31.75 13.5766 31.6315 13.2905 31.4205 13.0795C31.2095 12.8685 30.9234 12.75 30.625 12.75ZM13.75 2.625H18.25V7.125H13.75V2.625ZM9.25 26.25H4.75V21.75H9.25V26.25ZM27.25 26.25H22.75V21.75H27.25V26.25Z" fill="#E8E8E8"/>
</svg>
