<svg width="18" height="18" viewBox="0 0 18 18" fill="none" xmlns="http://www.w3.org/2000/svg">
<path d="M0.949688 6.13672H4.34531V17.0623H0.949688V6.13672ZM2.64844 0.699219C3.0379 0.699219 3.41861 0.814731 3.74241 1.03114C4.06621 1.24756 4.31855 1.55514 4.4675 1.91499C4.61646 2.27485 4.65534 2.67079 4.57922 3.05274C4.5031 3.43469 4.31541 3.78549 4.03989 4.06075C3.76437 4.33601 3.4134 4.52337 3.03137 4.59912C2.64935 4.67487 2.25344 4.63561 1.89373 4.48632C1.53402 4.33702 1.22667 4.08439 1.01057 3.76038C0.794467 3.43638 0.679317 3.05556 0.679688 2.66609C0.680185 2.14427 0.887826 1.644 1.25698 1.27519C1.62614 0.906382 2.12662 0.699219 2.64844 0.699219ZM6.47531 6.13672H9.73031V7.63672H9.77531C10.2291 6.77797 11.3353 5.87234 12.9872 5.87234C16.4259 5.86484 17.0634 8.12797 17.0634 11.0623V17.0623H13.6678V11.7467C13.6678 10.4811 13.6453 8.85172 11.9034 8.85172C10.1616 8.85172 9.86531 10.2317 9.86531 11.6642V17.0623H6.47531V6.13672Z" fill="white"/>
</svg>
